<?xml version="1.0"?>
<svg width="512" height="512" xmlns="http://www.w3.org/2000/svg" xmlns:svg="http://www.w3.org/2000/svg" clip-rule="evenodd" fill-rule="evenodd" version="1.1">
 <link xmlns="http://www.w3.org/1999/xhtml" rel="stylesheet" href="./svg.css" type="text/css"/>
 
 <g class="layer">
  <title>Layer 1</title>
  <g id="svg_1">
   <path class="path" d="m145.5,-0.5c73.33,0 146.67,0 220,0c51.38,11.38 78.71,43.38 82,96c17.67,-0.17 35.34,0 53,0.5c5.09,1.6 8.76,4.77 11,9.5c0,41 0,82 0,123c-2.12,4.28 -5.45,7.45 -10,9.5c-18,0.5 -36,0.67 -54,0.5c0.17,48.67 0,97.33 -0.5,146c-1.82,11.64 -6.82,21.64 -15,30c-0.07,18.38 -0.73,36.71 -2,55c-6.26,22.68 -20.76,36.68 -43.5,42c-17.67,0 -35.33,0 -53,0c-24.42,-5.93 -39.26,-21.26 -44.5,-46c-0.5,-11.33 -0.67,-22.66 -0.5,-34c-22,0 -44,0 -66,0c0.17,11.34 0,22.67 -0.5,34c-5.24,24.74 -20.08,40.07 -44.5,46c-17.67,0 -35.33,0 -53,0c-22.74,-5.32 -37.24,-19.32 -43.5,-42c-1.27,-18.29 -1.93,-36.62 -2,-55c-8.18,-8.36 -13.18,-18.36 -15,-30c-0.5,-48.67 -0.67,-97.33 -0.5,-146c-18,0.17 -36,0 -54,-0.5c-4.54,-2.05 -7.88,-5.22 -10,-9.5c0,-41 0,-82 0,-123c2.24,-4.73 5.91,-7.9 11,-9.5c17.66,-0.5 35.33,-0.67 53,-0.5c3.29,-52.62 30.62,-84.62 82,-96zm14,30c68.02,-0.46 136.02,0.04 204,1.5c26.18,6.01 43.18,21.85 51,47.5c-106,1.33 -212,1.33 -318,0c10.24,-30.25 31.24,-46.58 63,-49zm-65,81c48.67,0 97.33,0 146,0c0,43.33 0,86.67 0,130c-48.67,0 -97.33,0 -146,0c0,-43.33 0,-86.67 0,-130zm176,0c48.67,0 97.33,0 146,0c0,43.33 0,86.67 0,130c-48.67,0 -97.33,0 -146,0c0,-43.33 0,-86.67 0,-130zm-241,16c11.33,0 22.67,0 34,0c0,27 0,54 0,81c-11.33,0 -22.67,0 -34,0c0,-27 0,-54 0,-81zm418,0c11.33,0 22.67,0 34,0c0,27 0,54 0,81c-11.33,0 -22.67,0 -34,0c0,-27 0,-54 0,-81zm-353,144c107.33,0 214.67,0 322,0c0.17,37 0,74 -0.5,111c-2.83,9.5 -9,15.67 -18.5,18.5c-94.67,0.67 -189.33,0.67 -284,0c-9.5,-2.83 -15.67,-9 -18.5,-18.5c-0.5,-37 -0.67,-74 -0.5,-111zm16,161c27,0 54,0 81,0c0.17,10.01 0,20.01 -0.5,30c-2.1,9.69 -7.93,15.86 -17.5,18.5c-15,2 -30,2 -45,0c-8.93,-3.26 -14.76,-9.43 -17.5,-18.5c-0.5,-9.99 -0.67,-19.99 -0.5,-30zm209,0c27,0 54,0 81,0c0.17,10.01 0,20.01 -0.5,30c-2.74,9.07 -8.57,15.24 -17.5,18.5c-15,2 -30,2 -45,0c-9.57,-2.64 -15.4,-8.81 -17.5,-18.5c-0.5,-9.99 -0.67,-19.99 -0.5,-30z" fill="#0077b6" id="svg_2" opacity="0.98"/>
  </g>
  <g id="svg_3">
   <path class="path" d="m138.5,320.5c16.82,-0.02 22.66,7.98 17.5,24c-8.67,9.33 -17.33,9.33 -26,0c-4.73,-10.84 -1.9,-18.84 8.5,-24z" fill="#0077b6" id="svg_4" opacity="0.92"/>
  </g>
  <g id="svg_5">
   <path class="path" d="m202.5,320.5c35.34,-0.17 70.67,0 106,0.5c10.79,5.68 13.29,13.84 7.5,24.5c-2.1,2.97 -4.93,4.8 -8.5,5.5c-34.67,0.67 -69.33,0.67 -104,0c-11.1,-4.56 -14.27,-12.39 -9.5,-23.5c2.44,-2.95 5.28,-5.29 8.5,-7z" fill="#0077b6" id="svg_6" opacity="0.96"/>
  </g>
  <g id="svg_7">
   <path class="path" d="m363.5,320.5c16.81,-0.04 22.65,7.96 17.5,24c-8.67,9.33 -17.33,9.33 -26,0c-4.74,-10.84 -1.9,-18.84 8.5,-24z" fill="#0077b6" id="svg_8" opacity="0.92"/>
  </g>
 </g>
</svg>