<?xml version="1.0" encoding="utf-8"?>
<!-- Svg Vector Icons : http://www.onlinewebfonts.com/icon -->
<!DOCTYPE svg PUBLIC "-//W3C//DTD SVG 1.1//EN" "http://www.w3.org/Graphics/SVG/1.1/DTD/svg11.dtd">
<svg version="1.1" xmlns="http://www.w3.org/2000/svg" xmlns:xlink="http://www.w3.org/1999/xlink" x="0px" y="0px" viewBox="0 0 1000 1000" enable-background="new 0 0 1000 1000" xml:space="preserve">
<metadata> Svg Vector Icons : http://www.onlinewebfonts.com/icon </metadata>
<g><path d="M106.2,680c0,38.8,31.4,70.2,70.2,70.2c38.8,0,70.2-31.4,70.2-70.2l0,0c0-38.8-31.4-70.2-70.2-70.2C137.7,609.8,106.2,641.2,106.2,680L106.2,680z"/><path d="M754.7,680c0,38.8,31.4,70.2,70.2,70.2c38.8,0,70.2-31.4,70.2-70.2c0-38.8-31.4-70.2-70.2-70.2C786.1,609.8,754.7,641.2,754.7,680L754.7,680z"/><path d="M931.2,249.8H131.4c-40.2,0-75.7,26.5-87.1,65C12.5,422.3,4.7,543.9,13.2,674.6c1.3,20.6,18.4,36.6,39.1,36.6h32.2c-3.4-9.9-5.4-20.6-5.4-31.7c0-53.8,43.6-97.4,97.4-97.4c53.8,0,97.4,43.6,97.4,97.4c0,11.1-1.9,21.7-5.4,31.7h463.7c-3.4-9.9-5.4-20.6-5.4-31.7c0-53.8,43.6-97.4,97.4-97.4c53.8,0,97.4,43.6,97.4,97.4c0,11.1-2,21.7-5.4,31.7h34.5c21.6,0,39.2-17.6,39.2-39.2V308.6C990,276.1,963.7,249.8,931.2,249.8z M245.2,462.5l-57.5,43.6H53.4c4.2-65.7,14.1-125.3,30.2-179.7c6.2-21,25.9-35.6,47.8-35.6h113.8L245.2,462.5L245.2,462.5z M470.6,454.9H284.4v-164h186.2L470.6,454.9L470.6,454.9z M715.6,454.9H509.8v-164h205.8V454.9z M949,454.9H754.8v-164h178.5c8.7,0,15.7,7,15.7,15.7V454.9z"/></g>
</svg>