<svg xmlns="http://www.w3.org/2000/svg" xmlns:xlink="http://www.w3.org/1999/xlink" version="1.1" width="1000" height="1000" viewBox="0 0 1000 1000" xml:space="preserve">
<desc>Created with Fabric.js 3.5.0</desc>
<defs>
</defs>
<rect x="0" y="0" width="100%" height="100%" fill="rgba(255,255,255,0)"/>
<g transform="matrix(0.9967 0 0 0.9967 498.35 498.35)" id="156072">
<g style="" vector-effect="non-scaling-stroke">
		<g transform="matrix(1 0 0 1 -323.6 180)">
<path style="stroke: none; stroke-width: 1; stroke-dasharray: none; stroke-linecap: butt; stroke-dashoffset: 0; stroke-linejoin: miter; stroke-miterlimit: 4; is-custom-font: none; font-file-url: none; fill: rgb(140,255,0); fill-rule: nonzero; opacity: 1;" transform=" translate(-176.4, -680)" d="M 106.2 680 c 0 38.8 31.4 70.2 70.2 70.2 c 38.8 0 70.2 -31.4 70.2 -70.2 l 0 0 c 0 -38.8 -31.4 -70.2 -70.2 -70.2 C 137.7 609.8 106.2 641.2 106.2 680 L 106.2 680 z" stroke-linecap="round"/>
</g>
		<g transform="matrix(1 0 0 1 324.9 180)">
<path style="stroke: none; stroke-width: 1; stroke-dasharray: none; stroke-linecap: butt; stroke-dashoffset: 0; stroke-linejoin: miter; stroke-miterlimit: 4; is-custom-font: none; font-file-url: none; fill: rgb(140,255,0); fill-rule: nonzero; opacity: 1;" transform=" translate(-824.9, -680)" d="M 754.7 680 c 0 38.8 31.4 70.2 70.2 70.2 c 38.8 0 70.2 -31.4 70.2 -70.2 c 0 -38.8 -31.4 -70.2 -70.2 -70.2 C 786.1 609.8 754.7 641.2 754.7 680 L 754.7 680 z" stroke-linecap="round"/>
</g>
		<g transform="matrix(1 0 0 1 -0.0494 -19.5)">
<path style="stroke: none; stroke-width: 1; stroke-dasharray: none; stroke-linecap: butt; stroke-dashoffset: 0; stroke-linejoin: miter; stroke-miterlimit: 4; is-custom-font: none; font-file-url: none; fill: rgb(140,255,0); fill-rule: nonzero; opacity: 1;" transform=" translate(-499.9506, -480.5)" d="M 931.2 249.8 H 131.4 c -40.2 0 -75.7 26.5 -87.1 65 C 12.5 422.3 4.7 543.9 13.2 674.6 c 1.3 20.6 18.4 36.6 39.1 36.6 h 32.2 c -3.4 -9.9 -5.4 -20.6 -5.4 -31.7 c 0 -53.8 43.6 -97.4 97.4 -97.4 c 53.8 0 97.4 43.6 97.4 97.4 c 0 11.1 -1.9 21.7 -5.4 31.7 h 463.7 c -3.4 -9.9 -5.4 -20.6 -5.4 -31.7 c 0 -53.8 43.6 -97.4 97.4 -97.4 c 53.8 0 97.4 43.6 97.4 97.4 c 0 11.1 -2 21.7 -5.4 31.7 h 34.5 c 21.6 0 39.2 -17.6 39.2 -39.2 V 308.6 C 990 276.1 963.7 249.8 931.2 249.8 z M 245.2 462.5 l -57.5 43.6 H 53.4 c 4.2 -65.7 14.1 -125.3 30.2 -179.7 c 6.2 -21 25.9 -35.6 47.8 -35.6 h 113.8 L 245.2 462.5 L 245.2 462.5 z M 470.6 454.9 H 284.4 v -164 h 186.2 L 470.6 454.9 L 470.6 454.9 z M 715.6 454.9 H 509.8 v -164 h 205.8 V 454.9 z M 949 454.9 H 754.8 v -164 h 178.5 c 8.7 0 15.7 7 15.7 15.7 V 454.9 z" stroke-linecap="round"/>
</g>
</g>
</g>
</svg>